<svg xmlns="http://www.w3.org/2000/svg" width="57" height="57" viewBox="0 0 57 57">
  <defs>
    <style>
      .cls-1 {
        fill: #666;
        fill-rule: evenodd;
      }
    </style>
  </defs>
  <path class="cls-1" d="M52.821,0H16.179A10.179,10.179,0,0,0,6,10.179V46.821A10.179,10.179,0,0,0,16.179,57H52.821A10.179,10.179,0,0,0,63,46.821V10.179A10.179,10.179,0,0,0,52.821,0Zm6.107,46.821a6.107,6.107,0,0,1-6.107,6.107H16.179a6.107,6.107,0,0,1-6.107-6.107V10.179a6.107,6.107,0,0,1,6.107-6.107H52.821a6.107,6.107,0,0,1,6.107,6.107V46.821ZM54.409,17.955a30.026,30.026,0,0,0-10.3-7.776,24.428,24.428,0,0,0-19.238,0,30.149,30.149,0,0,0-10.179,7.838,2.052,2.052,0,0,0,.326,2.87l9.161,7.227a1.914,1.914,0,0,0,1.608.407,2.036,2.036,0,0,0,1.384-.936A8.754,8.754,0,0,1,34.5,23.065a8.754,8.754,0,0,1,7.43,4.458,2.036,2.036,0,0,0,1.384.936,0.959,0.959,0,0,0,.346,0,2.036,2.036,0,0,0,1.262-.448l9.161-7.227a2.008,2.008,0,0,0,.326-2.83h0Zm-10.362,5.6A12.581,12.581,0,0,0,36.536,19.2V16.286a2.036,2.036,0,1,0-4.071,0V19.2a12.581,12.581,0,0,0-7.512,4.356l-5.8-4.58a26.018,26.018,0,0,1,7.349-5.11,20.358,20.358,0,0,1,16,0,26.018,26.018,0,0,1,7.349,5.11Z" transform="translate(-6)"/>
</svg>
