<?xml version="1.0" encoding="utf-8"?>
<!-- Generator: Adobe Illustrator 18.0.0, SVG Export Plug-In . SVG Version: 6.00 Build 0)  -->
<!DOCTYPE svg PUBLIC "-//W3C//DTD SVG 1.1//EN" "http://www.w3.org/Graphics/SVG/1.1/DTD/svg11.dtd">
<svg version="1.1" id="Layer_1" xmlns="http://www.w3.org/2000/svg" xmlns:xlink="http://www.w3.org/1999/xlink" x="0px" y="0px"
	 width="31.82px" height="75px" viewBox="0 0 31.82 75" enable-background="new 0 0 31.82 75" xml:space="preserve">
<g>
	<path fill="#666666" d="M15.91,18.364c5.07,0,9.195-4.119,9.195-9.182C25.105,4.119,20.98,0,15.91,0
		c-5.07,0-9.195,4.119-9.195,9.182C6.715,14.245,10.84,18.364,15.91,18.364z M15.91,3.973c2.881,0,5.226,2.337,5.226,5.21
		c0,2.873-2.345,5.209-5.226,5.209s-5.226-2.337-5.226-5.209C10.684,6.31,13.029,3.973,15.91,3.973z M31.787,44.599l-3.906-21.112
		c-0.176-0.951-1.016-1.642-1.997-1.642H5.936c-0.98,0-1.82,0.691-1.996,1.641L0.033,44.561c-0.109,0.584,0.052,1.185,0.437,1.64
		c0.385,0.456,0.956,0.72,1.558,0.72l4.792,0.001l1.698,26.205C8.588,74.18,9.474,75,10.545,75h10.731
		c1.071,0,1.957-0.82,2.026-1.872l1.697-26.196l4.781,0.027c0.56,0.016,1.178-0.259,1.567-0.715
		C31.733,45.787,31.895,45.184,31.787,44.599z M24.861,42.929l-0.901-8.564c-0.115-1.1-1.12-1.914-2.228-1.784
		c-1.115,0.114-1.925,1.097-1.809,2.196l1.092,10.386c0.004,0.038,0.016,0.073,0.022,0.11l-1.667,25.725h-6.923l-1.656-25.559
		c0.023-0.09,0.046-0.18,0.056-0.275l1.093-10.386c0.116-1.099-0.694-2.082-1.809-2.196c-1.125-0.128-2.113,0.684-2.228,1.784
		l-0.9,8.555L4.463,42.92l3.165-17.074h16.564l3.164,17.098L24.861,42.929z"/>
</g>
</svg>
