<svg xmlns="http://www.w3.org/2000/svg" width="76.75" height="71.813" viewBox="0 0 76.75 71.813">
  <defs>
    <style>
      .cls-1 {
        fill: #666;
        fill-rule: evenodd;
      }
    </style>
  </defs>
  <path class="cls-1" d="M52.691,37.978a13.521,13.521,0,0,0,9.567-3.928L76.424,19.926A1.928,1.928,0,0,0,77,18.542a1.906,1.906,0,0,0-.57-1.358,1.982,1.982,0,0,0-2.754,0L59.507,31.3a9.724,9.724,0,0,1-11.473,1.6,1.938,1.938,0,0,0-2.392.4l-4.127,4.569h0l-2.6,2.878,0,0-2.522,2.792,0,0L34.261,45.9l-18,19.926a3.519,3.519,0,0,1-2.53,1.159,3.62,3.62,0,0,1-3.649-3.619,3.52,3.52,0,0,1,1.172-2.53L30.879,43.235l0,0,2.887-2.6h0l2.511-2.253h0l0.1-.09,7.51-6.739a1.945,1.945,0,0,0,.4-2.381,9.669,9.669,0,0,1,1.6-11.441L60.2,3.474a1.943,1.943,0,0,0-.016-2.76A1.966,1.966,0,0,0,57.45.73L43.143,14.994a13.432,13.432,0,0,0-2.929,14.66l-3.928,3.524L33.19,30.4c1.5-5.651-1.108-12.858-6.719-18.462A24.008,24.008,0,0,0,14.114,5.125C9.692,4.326,5.84,5.3,3.263,7.866-2,13.118-.169,23.493,7.356,30.994c5.612,5.6,12.844,8.2,18.517,6.7l2.408,2.666L8.667,57.957a7.418,7.418,0,0,0,4.915,13.007q0.117,0,.234,0a7.505,7.505,0,0,0,5.344-2.533L36.386,49.344l18.155,20.1a7.481,7.481,0,0,0,5.353,2.54l0.23,0a7.413,7.413,0,0,0,4.919-13.006L44.4,40.463l3.152-3.492A13.5,13.5,0,0,0,52.691,37.978Zm9.962,29.087a3.585,3.585,0,0,1-2.647,1.03,3.526,3.526,0,0,1-2.561-1.239L39.006,46.441l2.8-3.1L62.456,61.871a3.606,3.606,0,0,1,1.236,2.548A3.566,3.566,0,0,1,62.653,67.064ZM10.108,28.25c-6-5.987-7.84-13.9-4.094-17.649s11.7-1.905,17.7,4.08C28.631,19.59,30.861,26,29.139,30.274a1.93,1.93,0,0,0,.507,2.172l3.731,3.342-2.205,1.979-3.254-3.6a1.952,1.952,0,0,0-2.168-.509C21.46,35.383,15.025,33.162,10.108,28.25Zm38.346-4.526a1.919,1.919,0,0,0,2.708,0l14.7-14.652a1.908,1.908,0,0,0,0-2.7h0a1.923,1.923,0,0,0-2.708,0l-14.7,14.652A1.907,1.907,0,0,0,48.454,23.724ZM53.5,28.757a1.919,1.919,0,0,0,2.708,0L70.906,14.1a1.908,1.908,0,0,0,0-2.7h0a1.923,1.923,0,0,0-2.708,0L53.5,26.057A1.907,1.907,0,0,0,53.5,28.757Z" transform="translate(-0.25 -0.188)"/>
</svg>
