<svg xmlns="http://www.w3.org/2000/svg" width="67" height="65" viewBox="0 0 67 65">
  <defs>
    <style>
      .cls-1 {
        fill: #666;
        fill-rule: evenodd;
      }
    </style>
  </defs>
  <path id="Shape_5_copy" data-name="Shape 5 copy" class="cls-1" d="M35.207,31.222a2.425,2.425,0,0,0-3.453-.083C20.055,42.4,2.226,59.495.946,60.563a2.5,2.5,0,0,0-.46,3.445A2.425,2.425,0,0,0,3.91,64.5c1.114-.846,20.971-19.921,29.447-28.074L45.146,48.907A1.255,1.255,0,0,1,45.4,50.3a1.229,1.229,0,0,1-1.167.78H28.092a2.477,2.477,0,0,0,0,4.953H44.229a6.074,6.074,0,0,0,5.666-3.787,6.207,6.207,0,0,0-1.213-6.762ZM45.929,19.273a9.637,9.637,0,1,0-9.518-9.636A9.589,9.589,0,0,0,45.929,19.273Zm0-14.32A4.684,4.684,0,1,1,41.3,9.637,4.66,4.66,0,0,1,45.929,4.953ZM66.293,23.638a2.425,2.425,0,0,0-3.459-.025c-0.057.057-6.575,5.315-25.977-3.08C28.465,16.9,21.717,16.559,16.8,19.513c-6,3.607-6.737,10.7-6.765,11A2.463,2.463,0,0,0,12.225,33.2a2.438,2.438,0,0,0,.248.013A2.465,2.465,0,0,0,14.9,31c0.005-.049.564-4.95,4.432-7.245,3.45-2.048,8.844-1.586,15.6,1.337,9.166,3.966,15.91,5.192,20.747,5.191,7.109,0,10.1-2.649,10.587-3.138A2.5,2.5,0,0,0,66.293,23.638Z"/>
</svg>
